<?xml version="1.0" encoding="UTF-8" standalone="no"?>
<!-- Created with Inkscape (http://www.inkscape.org/) -->

<svg
   xmlns:dc="http://purl.org/dc/elements/1.1/"
   xmlns:cc="http://creativecommons.org/ns#"
   xmlns:rdf="http://www.w3.org/1999/02/22-rdf-syntax-ns#"
   xmlns:svg="http://www.w3.org/2000/svg"
   xmlns="http://www.w3.org/2000/svg"
   xmlns:sodipodi="http://sodipodi.sourceforge.net/DTD/sodipodi-0.dtd"
   xmlns:inkscape="http://www.inkscape.org/namespaces/inkscape"
   width="200"
   height="200"
   viewBox="0 0 200 200"
   id="svg2"
   version="1.1"
   inkscape:version="0.91 r13725"
   sodipodi:docname="sousMarinVert.svg">
  <defs
     id="defs4" />
  <sodipodi:namedview
     id="base"
     pagecolor="#ffffff"
     bordercolor="#666666"
     borderopacity="1.0"
     inkscape:pageopacity="0.0"
     inkscape:pageshadow="2"
     inkscape:zoom="2.8"
     inkscape:cx="95.425824"
     inkscape:cy="141.46256"
     inkscape:document-units="px"
     inkscape:current-layer="layer1"
     showgrid="false"
     units="px"
     inkscape:window-width="944"
     inkscape:window-height="1002"
     inkscape:window-x="960"
     inkscape:window-y="0"
     inkscape:window-maximized="0" />
  <metadata
     id="metadata7">
    <rdf:RDF>
      <cc:Work
         rdf:about="">
        <dc:format>image/svg+xml</dc:format>
        <dc:type
           rdf:resource="http://purl.org/dc/dcmitype/StillImage" />
        <dc:title />
      </cc:Work>
    </rdf:RDF>
  </metadata>
  <g
     inkscape:groupmode="layer"
     id="layer2"
     inkscape:label="Calque 2">
    <rect
       style="fill:#4d4d4d;stroke:#000000"
       id="rect3417"
       width="19.285715"
       height="60.714287"
       x="13.571428"
       y="63.571426" />
    <path
       style="fill:#4d4d4d;fill-rule:evenodd;stroke:#000000;stroke-width:0.95305538px;stroke-linecap:butt;stroke-linejoin:miter;stroke-opacity:1"
       d="m 129.65216,80.182842 c 12.13685,-9.73676 33.55481,-7.464849 33.55481,-7.464849 l 8.21024,11.359552 z"
       id="path3421"
       inkscape:connector-curvature="0" />
    <path
       style="fill:#800000;fill-opacity:1;stroke:#000000;stroke-width:0.35714287"
       d="M 79.550903,107.11161 C 38.579599,105.61232 9.2771658,100.60398 6.0352476,94.546397 4.439864,91.565396 14.420987,87.558264 29.423279,85.15678 c 20.084124,-3.214956 41.493156,-4.611149 70.573974,-4.602492 35.427957,0.01055 64.733847,2.487673 81.679327,6.904075 10.44458,2.722108 14.33725,5.679734 11.08853,8.424987 -5.922,5.00424 -30.00782,9.09615 -64.01786,10.8759 -9.46117,0.4951 -39.42999,0.70975 -49.196347,0.35236 z"
       id="path3337"
       inkscape:connector-curvature="0" />
    <path
       style="fill:#800000;fill-opacity:1;stroke:#000000;stroke-width:0.35714287"
       d="M 79.550903,107.11161 C 38.579599,105.61232 9.2771658,100.60398 6.0352476,94.546397 4.439864,91.565396 14.420987,87.558264 29.423279,85.15678 c 20.084124,-3.214956 41.493156,-4.611149 70.573974,-4.602492 35.427957,0.01055 64.733847,2.487673 81.679327,6.904075 10.44458,2.722108 14.33725,5.679734 11.08853,8.424987 -5.922,5.00424 -30.00782,9.09615 -64.01786,10.8759 -9.46117,0.4951 -39.42999,0.70975 -49.196347,0.35236 z"
       id="path3339"
       inkscape:connector-curvature="0" />
    <path
       style="fill:#800000;fill-opacity:1;stroke:#000000;stroke-width:0.35714287"
       d="M 79.550903,107.11161 C 38.579599,105.61232 9.2771658,100.60398 6.0352476,94.546397 4.439864,91.565396 14.420987,87.558264 29.423279,85.15678 c 20.084124,-3.214956 41.493156,-4.611149 70.573974,-4.602492 35.427957,0.01055 64.733847,2.487673 81.679327,6.904075 10.44458,2.722108 14.33725,5.679734 11.08853,8.424987 -5.922,5.00424 -30.00782,9.09615 -64.01786,10.8759 -9.46117,0.4951 -39.42999,0.70975 -49.196347,0.35236 z"
       id="path3341"
       inkscape:connector-curvature="0" />
    <path
       style="fill:#800000;fill-opacity:1;stroke:#000000;stroke-width:0.35714287"
       d="M 79.550903,107.11161 C 38.579599,105.61232 9.2771658,100.60398 6.0352476,94.546397 4.439864,91.565396 14.420987,87.558264 29.423279,85.15678 c 20.084124,-3.214956 41.493156,-4.611149 70.573974,-4.602492 35.427957,0.01055 64.733847,2.487673 81.679327,6.904075 10.44458,2.722108 14.33725,5.679734 11.08853,8.424987 -5.922,5.00424 -30.00782,9.09615 -64.01786,10.8759 -9.46117,0.4951 -39.42999,0.70975 -49.196347,0.35236 z"
       id="path3343"
       inkscape:connector-curvature="0" />
    <path
       style="fill:#800000;fill-opacity:1;stroke:#000000;stroke-width:0.35714287"
       d="m 14.282967,75.680297 0,-11.428571 8.928571,0 8.928572,0 0,9.579453 0,9.579452 -4.732143,0.812965 c -2.602679,0.447131 -6.580357,1.278801 -8.839286,1.848157 -2.258928,0.569356 -4.147321,1.035625 -4.196428,1.036154 -0.04911,5.29e-4 -0.08929,-5.141896 -0.08929,-11.42761 z"
       id="path3345"
       inkscape:connector-curvature="0" />
    <path
       style="fill:#800000;fill-opacity:1;stroke:#000000;stroke-width:0.35714287"
       d="m 159.28297,82.278692 c -4.02679,-0.451074 -11.74107,-1.173583 -17.14286,-1.605577 -5.40179,-0.431994 -9.9526,-0.907026 -10.11292,-1.055627 -0.38968,-0.361183 2.23534,-1.868402 5.49917,-3.157484 5.55663,-2.194648 12.26111,-3.2719 20.39364,-3.276777 l 4.88704,-0.0029 2.75889,3.839286 c 1.51738,2.111607 3.15425,4.361607 3.63749,5 l 0.87861,1.160714 -1.73882,-0.04074 c -0.95635,-0.02241 -5.03346,-0.409796 -9.06024,-0.860869 z"
       id="path3347"
       inkscape:connector-curvature="0" />
    <path
       style="fill:#800000;fill-opacity:1;stroke:#000000;stroke-width:0.35714287"
       d="M 79.550903,107.11161 C 38.579599,105.61232 9.2771658,100.60398 6.0352476,94.546397 4.439864,91.565396 14.420987,87.558264 29.423279,85.15678 c 20.084124,-3.214956 41.493156,-4.611149 70.573974,-4.602492 35.427957,0.01055 64.733847,2.487673 81.679327,6.904075 10.44458,2.722108 14.33725,5.679734 11.08853,8.424987 -5.922,5.00424 -30.00782,9.09615 -64.01786,10.8759 -9.46117,0.4951 -39.42999,0.70975 -49.196347,0.35236 z"
       id="path3349"
       inkscape:connector-curvature="0" />
    <path
       style="fill:#800000;fill-opacity:1;stroke:#000000;stroke-width:0.35714287"
       d="m 14.282967,112.0848 c 0,-11.11681 0.02004,-11.44628 0.683268,-11.23578 2.258931,0.71696 8.369783,2.07526 12.441732,2.76551 l 4.732143,0.80216 0,9.56038 0,9.56037 -8.928572,0 -8.928571,0 0,-11.45264 z"
       id="path3351"
       inkscape:connector-curvature="0" />
    <path
       style="fill:#800000;fill-opacity:1;stroke:#000000;stroke-width:0.35714287"
       d="M 79.550903,107.11161 C 38.579599,105.61232 9.2771658,100.60398 6.0352476,94.546397 4.439864,91.565396 14.420987,87.558264 29.423279,85.15678 c 20.084124,-3.214956 41.493156,-4.611149 70.573974,-4.602492 35.427957,0.01055 64.733847,2.487673 81.679327,6.904075 10.44458,2.722108 14.33725,5.679734 11.08853,8.424987 -5.922,5.00424 -30.00782,9.09615 -64.01786,10.8759 -9.46117,0.4951 -39.42999,0.70975 -49.196347,0.35236 z"
       id="path3353"
       inkscape:connector-curvature="0" />
    <path
       style="fill:#800000;fill-opacity:1;stroke:#000000;stroke-width:0.35714287"
       d="M 79.550903,107.11161 C 38.579599,105.61232 9.2771658,100.60398 6.0352476,94.546397 4.439864,91.565396 14.420987,87.558264 29.423279,85.15678 c 20.084124,-3.214956 41.493156,-4.611149 70.573974,-4.602492 35.427957,0.01055 64.733847,2.487673 81.679327,6.904075 10.44458,2.722108 14.33725,5.679734 11.08853,8.424987 -5.922,5.00424 -30.00782,9.09615 -64.01786,10.8759 -9.46117,0.4951 -39.42999,0.70975 -49.196347,0.35236 z"
       id="path3355"
       inkscape:connector-curvature="0" />
    <path
       style="fill:#800000;fill-opacity:1;stroke:#000000;stroke-width:0.35714287"
       d="M 79.550903,107.11161 C 38.579599,105.61232 9.2771658,100.60398 6.0352476,94.546397 4.439864,91.565396 14.420987,87.558264 29.423279,85.15678 c 20.084124,-3.214956 41.493156,-4.611149 70.573974,-4.602492 35.427957,0.01055 64.733847,2.487673 81.679327,6.904075 10.44458,2.722108 14.33725,5.679734 11.08853,8.424987 -5.922,5.00424 -30.00782,9.09615 -64.01786,10.8759 -9.46117,0.4951 -39.42999,0.70975 -49.196347,0.35236 z"
       id="path3357"
       inkscape:connector-curvature="0" />
  </g>
  <g
     inkscape:label="Calque 1"
     inkscape:groupmode="layer"
     id="layer1"
     transform="translate(0,-852.3622)">
    <ellipse
       style="fill:#4d4d4d;stroke:#000000"
       id="path3390"
       cx="99.923676"
       cy="946.28558"
       rx="94.701797"
       ry="14.142136" />
    <path
       style="fill:#800000;fill-opacity:1;stroke:#000000;stroke-width:0.35714287"
       d="M 79.550903,107.11161 C 38.579599,105.61232 9.2771658,100.60398 6.0352476,94.546397 4.439864,91.565396 14.420987,87.558264 29.423279,85.15678 c 20.084124,-3.214956 41.493156,-4.611149 70.573974,-4.602492 35.427957,0.01055 64.733847,2.487673 81.679327,6.904075 10.44458,2.722108 14.33725,5.679734 11.08853,8.424987 -5.922,5.00424 -30.00782,9.09615 -64.01786,10.8759 -9.46117,0.4951 -39.42999,0.70975 -49.196347,0.35236 z"
       id="path3359"
       inkscape:connector-curvature="0"
       transform="translate(0,852.3622)" />
    <path
       style="fill:#008000;fill-opacity:1;stroke:#000000;stroke-width:0.35714287"
       d="M 76.604395,106.73909 C 49.986156,105.55937 27.961446,102.90818 15.89011,99.430716 11.893731,98.279455 7.5973479,96.168023 6.6651607,94.897169 6.0100443,94.004046 6.0002061,93.873712 6.5271945,93.069426 9.6733283,88.267819 33.074413,83.667718 64.104395,81.751108 c 17.947543,-1.108556 52.920515,-1.105301 71.218115,0.0066 28.11559,1.708558 49.14487,5.304751 55.9965,9.575893 3.28543,2.048056 2.89866,3.750831 -1.32952,5.853317 -8.31298,4.133672 -30.99836,7.629162 -59.63509,9.188892 -9.22321,0.50236 -45.135387,0.74506 -53.750005,0.36325 z"
       id="path3350"
       inkscape:connector-curvature="0"
       transform="translate(0,852.3622)" />
    <path
       style="fill:#008000;fill-opacity:1;stroke:#000000;stroke-width:0.35714287"
       d="m 14.64011,75.718507 0,-11.109638 8.571428,0 8.571429,0 0,9.260393 0,9.260394 -2.053572,0.393855 C 25.461162,84.342119 15.711952,86.416842 15.18709,86.61825 14.703102,86.803974 14.64011,85.548711 14.64011,75.718507 Z"
       id="path3352"
       inkscape:connector-curvature="0"
       transform="translate(0,852.3622)" />
    <path
       style="fill:#008000;fill-opacity:1;stroke:#000000;stroke-width:0.35714287"
       d="m 161.42582,82.243412 c -4.78406,-0.52646 -27.53393,-2.634543 -28.43127,-2.634543 -1.05895,0 -0.0123,-0.813191 2.54892,-1.980375 5.99711,-2.73297 11.09863,-3.732344 20.34664,-3.98585 l 6.78571,-0.18601 3.06519,4.236832 c 1.68585,2.330257 3.18195,4.437724 3.32465,4.68326 0.33006,0.567909 -1.56876,0.534775 -7.63984,-0.133314 z"
       id="path3354"
       inkscape:connector-curvature="0"
       transform="translate(0,852.3622)" />
    <path
       style="fill:#008000;fill-opacity:1;stroke:#000000;stroke-width:0.35714287"
       d="m 14.64011,112.07066 c 0,-10.43408 0.03801,-11.09503 0.625,-10.86929 1.382418,0.53163 15.192576,3.4075 16.363061,3.4075 0.08514,0 0.154796,4.17857 0.154796,9.28571 l 0,9.28572 -8.571429,0 -8.571428,0 0,-11.10964 z"
       id="path3356"
       inkscape:connector-curvature="0"
       transform="translate(0,852.3622)" />
  </g>
</svg>
